<svg width="98" height="104" viewBox="0 0 98 104" fill="none" xmlns="http://www.w3.org/2000/svg">
<path d="M2.44708 62.3983C5.72732 85.4538 24.6003 102.354 46.5677 101.92C67.702 101.231 84.4491 82.7562 84.2801 60.3225V51.9984C84.4501 74.4363 67.703 92.9105 46.5677 93.5991C37.2603 93.7248 28.1554 90.7697 20.5693 85.1611C12.9832 79.5525 7.30883 71.5808 4.3664 62.3983H2.44708Z" fill="black"/>
<path d="M47.0381 13.5178V26.3101C48.2661 23.5735 50.067 21.157 52.309 19.2376C54.551 17.3181 57.1774 15.9441 59.996 15.2163C62.8146 14.4884 65.754 14.4251 68.5992 15.031C71.4443 15.6368 74.1232 16.8965 76.4397 18.7178V7.27787C76.4528 6.60016 76.3358 5.92654 76.0954 5.29645C75.855 4.66636 75.4962 4.09247 75.0399 3.60837C74.5835 3.12427 74.0389 2.73969 73.4379 2.47715C72.8369 2.21461 72.1915 2.07938 71.5396 2.07938C70.8877 2.07938 70.2424 2.21461 69.6414 2.47715C69.0403 2.73969 68.4957 3.12427 68.0394 3.60837C67.5831 4.09247 67.2243 4.66636 66.9839 5.29645C66.7435 5.92654 66.6264 6.60016 66.6395 7.27787V9.35785C66.6526 8.68014 66.5356 8.00652 66.2952 7.37643C66.0548 6.74634 65.696 6.17245 65.2397 5.68835C64.7833 5.20425 64.2387 4.81967 63.6377 4.55713C63.0367 4.29459 62.3913 4.15935 61.7394 4.15935C61.0875 4.15935 60.4422 4.29459 59.8412 4.55713C59.2401 4.81967 58.6955 5.20425 58.2392 5.68835C57.7829 6.17245 57.4241 6.74634 57.1837 7.37643C56.9433 8.00652 56.8262 8.68014 56.8393 9.35785V13.5178C56.8524 12.8401 56.7354 12.1665 56.495 11.5364C56.2546 10.9063 55.8958 10.3324 55.4395 9.84831C54.9831 9.36421 54.4385 8.97963 53.8375 8.71709C53.2365 8.45454 52.5911 8.31931 51.9392 8.31931C51.2873 8.31931 50.642 8.45454 50.041 8.71709C49.4399 8.97963 48.8953 9.36421 48.439 9.84831C47.9827 10.3324 47.6239 10.9063 47.3835 11.5364C47.1431 12.1665 47.026 12.8401 47.0391 13.5178H47.0381Z" fill="black"/>
<path d="M84.2791 54.0795H94.0793C95.1296 54.0681 96.1325 53.6235 96.8675 52.8434C97.6026 52.0633 98.0096 51.0116 97.999 49.9195C98.0029 49.3689 97.7988 48.8386 97.4307 48.4428L85.6697 35.9629C85.4884 35.7708 85.272 35.6184 85.0332 35.5146C84.7944 35.4108 84.538 35.3578 84.2791 35.3586C83.2289 35.37 82.226 35.8146 81.491 36.5947C80.7559 37.3748 80.3489 38.4265 80.3595 39.5186V49.9185C80.3487 51.0107 80.7555 52.0627 81.4906 52.843C82.2257 53.6233 83.2287 54.0681 84.2791 54.0795ZM93.2729 49.9195H84.2791V40.3715L93.2729 49.9195Z" fill="black"/>
<path d="M88.1998 70.7193C89.7753 70.7025 91.2799 70.0357 92.3827 68.8655C93.4855 67.6953 94.0961 66.1176 94.0803 64.4794C94.0784 62.6653 93.4995 60.9028 92.4338 59.4664L85.812 50.7098C85.5628 50.3753 85.2187 50.1309 84.8284 50.0114C84.438 49.8918 84.0214 49.9032 83.6377 50.0438C83.2512 50.1893 82.9172 50.4551 82.6813 50.805C82.4453 51.155 82.3189 51.5721 82.3193 51.9995V64.4794C82.3035 66.1176 82.9141 67.6953 84.0169 68.8655C85.1196 70.0357 86.6242 70.7025 88.1998 70.7193ZM86.239 57.927L89.3551 62.087C89.8746 62.7675 90.1577 63.6105 90.1586 64.4794C90.167 64.7524 90.1225 65.0244 90.0277 65.2792C89.933 65.5341 89.79 65.7665 89.6071 65.9627C89.4243 66.1589 89.2055 66.3149 88.9635 66.4215C88.7216 66.528 88.4615 66.583 88.1988 66.583C87.9361 66.583 87.676 66.528 87.4341 66.4215C87.1921 66.3149 86.9733 66.1589 86.7904 65.9627C86.6076 65.7665 86.4646 65.5341 86.3699 65.2792C86.2751 65.0244 86.2306 64.7524 86.239 64.4794V57.927Z" fill="black"/>
<path d="M45.7592 104H46.6022C52.8818 103.853 59.0383 102.159 64.566 99.0572C70.0936 95.9554 74.8346 91.5342 78.3995 86.1568C78.7066 85.7086 78.8334 85.1535 78.7529 84.6096C78.6724 84.0657 78.391 83.5759 77.9686 83.2444C77.7608 83.0835 77.5241 82.9674 77.2724 82.9032C77.0208 82.839 76.7593 82.8279 76.5034 82.8705C76.2476 82.9132 76.0026 83.0087 75.7828 83.1514C75.5631 83.2942 75.3731 83.4813 75.224 83.7017C72.0097 88.5603 67.7326 92.5565 62.7441 95.3621C57.7555 98.1676 52.198 99.7023 46.5281 99.84H45.7592C25.9384 99.8154 8.84142 85.0654 4.77349 64.4794H11.7609C12.1508 64.4752 12.5307 64.3503 12.852 64.1206C13.1732 63.8908 13.4214 63.5667 13.5646 63.1897C13.7149 62.811 13.756 62.3951 13.683 61.9926C13.61 61.5901 13.4261 61.2183 13.1535 60.9226L6.6849 54.0795H29.3975C34.1241 54.0288 38.6379 52.028 41.946 48.5173C45.2541 45.0066 47.0858 40.2734 47.0381 35.3586C47.0265 32.5438 47.6297 29.7629 48.8022 27.2257C49.6393 25.3313 50.7943 23.607 52.2129 22.1337C54.6518 19.5265 57.7905 17.7451 61.2187 17.0223C64.6468 16.2996 68.2049 16.6691 71.4279 18.0827C74.6725 19.5345 77.4349 21.9464 79.3714 25.0181C81.3079 28.0898 82.333 31.6858 82.3192 35.3586V35.9208C81.7204 36.2919 81.2249 36.8187 80.8812 37.4493C80.5376 38.08 80.3578 38.7927 80.3593 39.5176V49.9174C80.3578 50.6423 80.5376 51.355 80.8812 51.9857C81.2249 52.6163 81.7204 53.1431 82.3192 53.5143V60.3163C82.3452 66.05 81.1959 71.7236 78.948 76.9592C78.7701 77.4521 78.7771 77.9966 78.9675 78.4844C79.158 78.9722 79.5179 79.3676 79.9759 79.5921C80.4321 79.8086 80.9511 79.8332 81.4243 79.6608C81.8976 79.4884 82.2884 79.1324 82.5149 78.6672C84.9968 72.8969 86.2664 66.6425 86.2389 60.3215V51.9974C86.242 51.7269 86.1937 51.4584 86.0969 51.2073C86 50.9563 85.8564 50.7276 85.6743 50.5343C85.4922 50.3411 85.2752 50.1871 85.0358 50.0812C84.7964 49.9754 84.5392 49.9197 84.279 49.9174V39.5186C84.5392 39.5163 84.7964 39.4606 85.0358 39.3548C85.2752 39.2489 85.4922 39.095 85.6743 38.9017C85.8564 38.7085 86 38.4798 86.0969 38.2287C86.1937 37.9776 86.242 37.7091 86.2389 37.4386V35.3586C86.2619 30.8648 85.0123 26.4633 82.6458 22.7029C80.2793 18.9426 76.9007 15.9897 72.9311 14.2125C68.9886 12.4833 64.6359 12.0319 60.4427 12.9176C56.2495 13.8032 52.411 15.9845 49.4298 19.1761C45.3726 23.5051 43.1071 29.314 43.1184 35.3586C43.1553 39.1812 41.7305 42.8624 39.1575 45.5928C36.5844 48.3232 33.0737 49.8792 29.3975 49.9185H1.95578C1.56588 49.9226 1.18603 50.0475 0.864744 50.2773C0.543462 50.507 0.295344 50.8311 0.152094 51.2082C0.00180463 51.5868 -0.0393474 52.0027 0.0336517 52.4052C0.106651 52.8077 0.29065 53.1795 0.563235 53.4752L7.0318 60.3184H2.44599C2.16028 60.3161 1.87761 60.3794 1.61812 60.5038C1.35863 60.6281 1.12871 60.8104 0.944728 61.0377C0.757755 61.2672 0.620109 61.5355 0.541018 61.8247C0.461928 62.114 0.443218 62.4175 0.486146 62.7149C3.91068 86.4455 23.1385 103.979 45.7592 104Z" fill="black"/>
<path d="M47.0382 28.3898C47.4102 28.3869 47.7737 28.2738 48.0862 28.0637C48.3986 27.8537 48.647 27.5555 48.8023 27.2039C49.6447 25.3175 50.7991 23.5995 52.213 22.1283C55.1834 18.9521 59.1726 17.0214 63.4223 16.7031C67.672 16.3848 71.8861 17.7011 75.2637 20.4019C75.5542 20.6329 75.902 20.7731 76.2664 20.8062C76.6307 20.8393 76.9966 20.764 77.3213 20.5889C77.6499 20.4108 77.9245 20.1416 78.1149 19.8111C78.3052 19.4806 78.4038 19.1017 78.3996 18.7165V7.27765C78.4085 5.70929 77.9287 4.18011 77.032 2.91894C76.1353 1.65777 74.87 0.732416 73.4254 0.281351C71.9864 -0.150424 70.4506 -0.0759164 69.0566 0.493298C67.6625 1.06251 66.4884 2.09456 65.7165 3.42907C64.5798 2.55972 63.2078 2.08636 61.7968 2.07667C60.3368 2.08973 58.9185 2.58437 57.7463 3.48933C56.574 4.39428 55.7083 5.66283 55.2739 7.11219C54.2292 6.50132 53.0472 6.19023 51.8489 6.21082C50.6506 6.23141 49.4791 6.58292 48.4544 7.22935C47.4188 7.8868 46.5638 8.81102 45.9722 9.91261C45.3806 11.0142 45.0724 12.2559 45.0773 13.5176V14.5576C45.069 14.8306 45.1135 15.1027 45.2083 15.3575C45.303 15.6123 45.446 15.8447 45.6288 16.0409C45.8116 16.2372 46.0305 16.3932 46.2725 16.4997C46.5144 16.6063 46.7744 16.6612 47.0372 16.6612C47.2999 16.6612 47.56 16.6063 47.8019 16.4997C48.0439 16.3932 48.2627 16.2372 48.4455 16.0409C48.6283 15.8447 48.7714 15.6123 48.8661 15.3575C48.9608 15.1027 49.0054 14.8306 48.997 14.5576V13.5176C48.997 13.1161 49.0731 12.7185 49.2208 12.3476C49.3686 11.9767 49.5852 11.6397 49.8582 11.3558C50.1312 11.0719 50.4554 10.8467 50.8121 10.693C51.1688 10.5394 51.5512 10.4603 51.9373 10.4603C52.3234 10.4603 52.7057 10.5394 53.0625 10.693C53.4192 10.8467 53.7433 11.0719 54.0164 11.3558C54.2894 11.6397 54.506 11.9767 54.6537 12.3476C54.8015 12.7185 54.8775 13.1161 54.8775 13.5176C54.8782 13.9666 55.0167 14.4037 55.2729 14.7652C53.0874 15.8795 51.0992 17.3705 49.3924 19.1748L48.7648 19.8819C48.5656 19.4814 48.2435 19.1616 47.8496 18.9732C47.4556 18.7848 47.0125 18.7386 46.5905 18.8419C46.1677 18.9505 45.7909 19.2003 45.5177 19.553C45.2446 19.9057 45.0903 20.3418 45.0783 20.7944V26.3068C45.0642 26.7835 45.2085 27.2506 45.487 27.6295C45.7655 28.0084 46.1612 28.2759 46.6073 28.3868L47.0382 28.3898ZM71.5387 4.15768C72.3264 4.16608 73.0787 4.49949 73.6301 5.08458C74.1815 5.66967 74.4868 6.45852 74.4789 7.27765V14.9738C69.6419 12.3772 64.0365 11.7895 58.7982 13.3295V9.35763C58.7982 8.54678 59.108 7.76915 59.6594 7.1958C60.2108 6.62245 60.9587 6.30034 61.7385 6.30034C62.5183 6.30034 63.2661 6.62245 63.8175 7.1958C64.369 7.76915 64.6787 8.54678 64.6787 9.35763C64.6704 9.63068 64.7149 9.9027 64.8096 10.1575C64.9044 10.4123 65.0474 10.6448 65.2302 10.841C65.413 11.0372 65.6319 11.1932 65.8738 11.2998C66.1158 11.4063 66.3758 11.4612 66.6386 11.4612C66.9013 11.4612 67.1614 11.4063 67.4033 11.2998C67.6452 11.1932 67.8641 11.0372 68.0469 10.841C68.2297 10.6448 68.3728 10.4123 68.4675 10.1575C68.5622 9.9027 68.6068 9.63068 68.5984 9.35763V7.27765C68.5905 6.45852 68.8958 5.66967 69.4472 5.08458C69.9986 4.49949 70.7509 4.16608 71.5387 4.15768Z" fill="black"/>
<path d="M29.3976 80.6208C29.5569 81.9238 30.1731 83.1198 31.128 83.9796C32.0829 84.8395 33.3095 85.3026 34.5725 85.2802H43.1185C48.2116 85.235 53.0917 83.1489 56.7427 79.4563C60.3937 75.7637 62.5344 70.7492 62.7189 65.4567L62.2485 64.9161C61.3126 69.4792 58.9059 73.5732 55.427 76.52C51.9481 79.4668 47.6056 81.0898 43.1185 81.1202H34.5725C33.576 81.1224 32.5994 80.8303 31.7562 80.278C30.9131 79.7257 30.2381 78.9358 29.8098 78.0003C29.4534 78.821 29.3113 79.7248 29.3976 80.6208Z" fill="black"/>
<path d="M70.327 32.885C71.9645 32.885 73.292 31.5047 73.292 29.8021C73.292 28.0994 71.9645 26.7191 70.327 26.7191C68.6895 26.7191 67.3621 28.0994 67.3621 29.8021C67.3621 31.5047 68.6895 32.885 70.327 32.885Z" fill="black"/>
<path d="M34.5725 87.3602H43.1185C48.7201 87.3109 54.0876 85.0172 58.1038 80.9566C62.12 76.896 64.4754 71.3813 64.6797 65.5604C64.6986 65.2894 64.6653 65.0171 64.5816 64.7596C64.4979 64.5021 64.3657 64.2646 64.1925 64.0609C64.0194 63.8573 63.8088 63.6917 63.5733 63.5739C63.3378 63.456 63.082 63.3882 62.8209 63.3745C62.5599 63.3608 62.2988 63.4015 62.0531 63.4941C61.8073 63.5868 61.5819 63.7295 61.3899 63.914C61.1979 64.0985 61.0433 64.3209 60.9352 64.5684C60.827 64.8158 60.7675 65.0832 60.7601 65.3549C60.595 70.1191 58.6688 74.6335 55.3825 77.9578C52.0962 81.282 47.7032 83.1599 43.1185 83.2002H34.5725C33.9735 83.2441 33.3755 83.1013 32.8549 82.7902C32.3342 82.4792 31.9145 82.0138 31.6494 81.4536C31.3842 80.8933 31.2856 80.2637 31.3662 79.6449C31.4468 79.0262 31.7028 78.4464 32.1017 77.9797C32.3791 77.6601 32.7176 77.4043 33.0956 77.2288C33.4736 77.0532 33.8828 76.9618 34.2968 76.9603H40.1773C40.7078 76.9603 41.2166 76.7411 41.5917 76.351C41.9669 75.961 42.1776 75.4319 42.1776 74.8803C42.1776 74.3286 41.9669 73.7996 41.5917 73.4095C41.2166 73.0194 40.7078 72.8003 40.1773 72.8003C39.7633 72.7988 39.3541 72.7073 38.9761 72.5318C38.5981 72.3562 38.2596 72.1004 37.9822 71.7809C37.5833 71.3141 37.3273 70.7344 37.2467 70.1156C37.1662 69.4969 37.2647 68.8672 37.5299 68.307C37.795 67.7468 38.2147 67.2814 38.7354 66.9703C39.256 66.6592 39.854 66.5165 40.453 66.5604H46.0588C46.5893 66.5604 47.0981 66.3412 47.4732 65.9511C47.8484 65.5611 48.0591 65.032 48.0591 64.4804C48.0591 63.9287 47.8484 63.3997 47.4732 63.0096C47.0981 62.6195 46.5893 62.4004 46.0588 62.4004C45.6448 62.3989 45.2356 62.3074 44.8576 62.1319C44.4796 61.9563 44.1411 61.7005 43.8637 61.381C43.4648 60.9142 43.2088 60.3345 43.1282 59.7157C43.0477 59.097 43.1462 58.4673 43.4114 57.9071C43.6765 57.3469 44.0962 56.8815 44.6169 56.5704C45.1375 56.2593 45.7355 56.1166 46.3345 56.1605H52.9207C53.4512 56.1605 53.96 55.9413 54.3352 55.5512C54.7103 55.1612 54.921 54.6321 54.921 54.0805C54.921 53.5288 54.7103 52.9998 54.3352 52.6097C53.96 52.2196 53.4512 52.0005 52.9207 52.0005H46.3335C45.145 51.9484 43.9641 52.2215 42.9088 52.7924C41.8535 53.3633 40.9607 54.2121 40.3196 55.2541C39.6671 56.3076 39.283 57.5163 39.2035 58.7666C39.124 60.0169 39.3516 61.2678 39.865 62.4014C38.7238 62.4507 37.613 62.798 36.635 63.4113C35.657 64.0247 34.8433 64.8843 34.2691 65.9109C33.6847 66.9482 33.3533 68.1183 33.3037 69.3193C33.2541 70.5204 33.4878 71.7158 33.9844 72.8013C33.0452 72.8471 32.1251 73.094 31.2819 73.5268C30.4387 73.9595 29.6906 74.5686 29.0843 75.316C28.2049 76.3875 27.6422 77.7006 27.4641 79.097C27.286 80.4935 27.5001 81.9137 28.0805 83.1865C28.661 84.4593 29.583 85.5304 30.7356 86.2708C31.8881 87.0111 33.222 87.3891 34.5764 87.3591L34.5725 87.3602Z" fill="black"/>
</svg>
