<svg width="44" height="44" viewBox="0 0 44 44" fill="none" xmlns="http://www.w3.org/2000/svg">
<path d="M16.958 0H3.208C2.35751 0.00105848 1.54216 0.339383 0.940771 0.940771C0.339383 1.54216 0.00105848 2.35751 0 3.208L0 11.458C0.000793858 12.3087 0.339002 13.1243 0.940418 13.7259C1.54183 14.3275 2.35734 14.6659 3.208 14.667H16.958C17.8088 14.6662 18.6246 14.3279 19.2262 13.7262C19.8279 13.1246 20.1662 12.3088 20.167 11.458V3.208C20.1659 2.35734 19.8275 1.54183 19.2259 0.940418C18.6243 0.339002 17.8087 0.000793858 16.958 0V0Z" fill="#2196F3"/>
<path d="M16.958 18.333H3.208C2.35734 18.3341 1.54183 18.6725 0.940418 19.2741C0.339002 19.8757 0.000793858 20.6913 0 21.542L0 40.792C0.000793858 41.6427 0.339002 42.4583 0.940418 43.0599C1.54183 43.6615 2.35734 43.9999 3.208 44.001H16.958C17.8087 44.0002 18.6243 43.662 19.2259 43.0606C19.8275 42.4592 20.1659 41.6437 20.167 40.793V21.543C20.1665 20.692 19.8282 19.876 19.2266 19.2741C18.6249 18.6723 17.809 18.3338 16.958 18.333Z" fill="#1976D2"/>
<path d="M40.792 29.333H27.042C26.1912 29.3338 25.3754 29.6721 24.7738 30.2738C24.1721 30.8754 23.8338 31.6912 23.833 32.542V40.792C23.8338 41.6428 24.1721 42.4586 24.7738 43.0602C25.3754 43.6619 26.1912 44.0002 27.042 44.001H40.792C41.6425 43.9999 42.4578 43.6616 43.0592 43.0602C43.6606 42.4589 43.9989 41.6435 44 40.793V32.543C43.9995 31.6922 43.6614 30.8763 43.0599 30.2745C42.4585 29.6727 41.6428 29.3341 40.792 29.333Z" fill="#2196F3"/>
<path d="M40.792 0H27.042C26.1913 0.000793858 25.3757 0.339002 24.7741 0.940418C24.1725 1.54183 23.8341 2.35734 23.833 3.208V22.458C23.8338 23.3088 24.1721 24.1246 24.7738 24.7262C25.3754 25.3279 26.1912 25.6662 27.042 25.667H40.792C41.6427 25.6659 42.4582 25.3275 43.0596 24.7259C43.661 24.1243 43.9992 23.3087 44 22.458V3.208C43.9989 2.35751 43.6606 1.54216 43.0592 0.940771C42.4578 0.339383 41.6425 0.00105848 40.792 0V0Z" fill="#1976D2"/>
</svg>
