<svg width="51" height="40" viewBox="0 0 51 40" fill="none" xmlns="http://www.w3.org/2000/svg">
<path d="M1.96497 21.841C1.96497 32.077 8.42597 39.032 16.396 39.032C24.366 39.032 30.827 32.079 30.827 21.841C30.827 11.603 24.365 1.96501 16.396 1.96501C8.42697 1.96501 1.96497 11.606 1.96497 21.841Z" fill="#FFC43A"/>
<path d="M42.44 33.19C35.202 40.428 25.715 40.778 20.08 35.142C14.445 29.506 14.794 20.02 22.032 12.782C29.27 5.54401 40.656 3.29501 46.292 8.93101C51.928 14.567 49.679 25.953 42.441 33.191L42.44 33.19Z" fill="#FFC43A"/>
<path d="M46.974 8.25001C44.062 5.33801 39.667 4.21101 34.6 5.07601C32.0954 5.5238 29.6789 6.37092 27.443 7.58501C24.502 3.38501 20.513 0.997009 16.396 0.997009C12.279 0.997009 8.37399 3.31101 5.39999 7.50801C2.51947 11.7324 0.985512 16.73 0.999985 21.843C0.877238 26.5917 2.46025 31.2273 5.46199 34.909C6.80442 36.5029 8.47884 37.7844 10.3681 38.6638C12.2575 39.5431 14.3161 39.9992 16.4 40C18.674 40.009 20.9159 39.464 22.932 38.412C24.9923 39.4674 27.2761 40.012 29.591 40C29.9683 40 30.3487 39.9863 30.732 39.959C35.4567 39.4777 39.8526 37.3196 43.123 33.876C46.7481 30.2695 49.1962 25.6498 50.145 20.625C51.012 15.557 49.886 11.163 46.974 8.25101V8.25001ZM48.242 20.299C47.3632 24.9307 45.1027 29.1877 41.758 32.51C35.11 39.158 26.28 39.979 20.758 34.462C19.4128 33.1258 18.3997 31.4927 17.8 29.694C17.7188 29.4512 17.5445 29.2506 17.3155 29.1363C17.0864 29.022 16.8213 29.0034 16.5785 29.0845C16.3357 29.1657 16.1351 29.34 16.0208 29.569C15.9065 29.7981 15.8878 30.0632 15.969 30.306C16.6631 32.3884 17.8358 34.279 19.393 35.826C19.8848 36.3178 20.4115 36.7733 20.969 37.189C19.5145 37.7752 17.9601 38.0737 16.392 38.068C8.59199 38.068 2.92599 31.244 2.92599 21.842C2.9115 17.1274 4.32484 12.5189 6.97999 8.62301C9.57998 4.95201 12.922 2.93001 16.396 2.93001C19.83 2.93001 23.208 4.97201 25.771 8.56401C24.1724 9.57779 22.6895 10.7635 21.349 12.1C18.7839 14.5946 16.8963 17.7012 15.864 21.127C15.8294 21.249 15.8191 21.3766 15.8339 21.5026C15.8486 21.6285 15.888 21.7504 15.9498 21.8611C16.0116 21.9718 16.0946 22.0693 16.194 22.148C16.2935 22.2266 16.4075 22.2849 16.5295 22.3195C16.6515 22.3541 16.7791 22.3643 16.9051 22.3496C17.031 22.3349 17.1528 22.2955 17.2636 22.2337C17.3743 22.1719 17.4718 22.0889 17.5504 21.9895C17.6291 21.89 17.6874 21.776 17.722 21.654C18.6647 18.5453 20.3829 15.7275 22.715 13.466C26.0372 10.1213 30.2943 7.86076 34.926 6.98201C39.359 6.22301 43.153 7.15801 45.61 9.61501C48.067 12.072 49 15.866 48.242 20.298V20.299Z" fill="white"/>
</svg>
