<svg width="47" height="46" viewBox="0 0 47 46" fill="none" xmlns="http://www.w3.org/2000/svg">
<path d="M32.0455 0C27.1702 0 23.5111 5.40406 21.4438 9.47673C19.507 7.52404 17.3229 6.27273 14.9545 6.27273C6.31516 6.27273 0 22.5702 0 31.0523C0 39.2944 6.70852 46 14.9545 46C20.2631 46 24.9225 43.2127 27.5768 39.0337C29.0353 39.4853 30.5328 39.7273 32.0454 39.7273C40.2915 39.7273 46.9999 33.1615 46.9999 25.0909C47 17.6074 40.6848 0 32.0455 0ZM14.9545 43.9091C7.88619 43.9091 2.13633 38.1417 2.13633 31.0523C2.13633 22.7192 8.47032 8.36361 14.9545 8.36361C21.4387 8.36361 27.7727 22.7192 27.7727 31.0523C27.7727 38.1417 22.023 43.9091 14.9545 43.9091ZM32.0455 37.6364C30.8848 37.6364 29.7399 37.4268 28.6118 37.1143C29.4393 35.2592 29.909 33.2111 29.909 31.0523C29.909 25.5298 27.2216 16.7173 22.9691 11.2239C25.7323 5.42454 29.0182 2.09088 32.0455 2.09088C38.7989 2.09088 44.8637 17.7135 44.8637 25.0909C44.8637 32.0089 39.1138 37.6364 32.0455 37.6364Z" fill="black"/>
<path d="M6.40906 31.3636C6.40906 35.9752 10.2426 39.7272 14.9545 39.7272C19.6664 39.7272 23.4999 35.9752 23.4999 31.3636C23.4999 26.752 19.6664 23 14.9545 23C10.2426 23 6.40906 26.752 6.40906 31.3636ZM21.3636 31.3636C21.3636 34.8226 18.4887 37.6363 14.9545 37.6363C11.4203 37.6363 8.54539 34.8226 8.54539 31.3636C8.54539 27.9046 11.4203 25.0909 14.9545 25.0909C18.4887 25.0909 21.3636 27.9046 21.3636 31.3636Z" fill="black"/>
</svg>
