<svg width="46" height="49" viewBox="0 0 46 49" fill="none" xmlns="http://www.w3.org/2000/svg">
<path d="M37.557 27.51L34.294 29.533L32.069 34.4L34.294 39.267H34.406L37.406 41.367L40.406 39.267H40.518V29.534L37.557 27.51Z" fill="#F64242"/>
<path d="M11.9759 29.533L8.71294 27.51L5.74695 29.533V39.266H5.85895L8.85895 41.366L11.8589 39.266H11.9709L14.1959 34.399L11.9759 29.533Z" fill="#F64242"/>
<path d="M23.1319 3.57701L5.74695 17.098V19.798L23.1319 24.259L40.5199 19.8V17.1L23.1319 3.57701Z" fill="#F64242"/>
<path d="M41.782 20.766L23.134 6.47501L4.48197 20.766L0.995972 16.217L21.392 0.591015C21.8921 0.20761 22.5048 -0.000183105 23.135 -0.000183105C23.7652 -0.000183105 24.3778 0.20761 24.878 0.591015L45.269 16.217L41.782 20.766Z" fill="#B2212D"/>
<path d="M11.9759 19.799H5.74695V29.533H11.9759L14.2009 24.666L11.9759 19.799Z" fill="#F64242"/>
<path d="M14.2009 44.133L11.9759 39.266H5.74695V49H11.9759L14.2009 44.133Z" fill="#F64242"/>
<path d="M34.294 19.799L32.069 24.666L34.294 29.533H40.523V19.799H34.294Z" fill="#F64242"/>
<path d="M40.523 39.266H34.294L32.069 44.133L34.294 49H40.523V39.266Z" fill="#F64242"/>
<path d="M23.134 19.799L20.269 33.145L23.134 49H34.293V19.8L23.134 19.799Z" fill="#FF6B6B"/>
<path d="M23.135 19.799H11.975V49H23.135V19.799Z" fill="#FFC9C9"/>
</svg>
