<svg width="48" height="48" viewBox="0 0 48 48" fill="none" xmlns="http://www.w3.org/2000/svg">
<path d="M24 22C27.866 22 31 18.866 31 15C31 11.134 27.866 8 24 8C20.134 8 17 11.134 17 15C17 18.866 20.134 22 24 22Z" fill="#11ADE8"/>
<path d="M24 0C19.2533 0 14.6131 1.40758 10.6663 4.04473C6.71954 6.68188 3.64341 10.4302 1.8269 14.8156C0.0103989 19.201 -0.464881 24.0266 0.461164 28.6822C1.38721 33.3377 3.67299 37.6141 7.02945 40.9706C10.3859 44.327 14.6623 46.6128 19.3178 47.5388C23.9734 48.4649 28.799 47.9896 33.1844 46.1731C37.5698 44.3566 41.3181 41.2805 43.9553 37.3337C46.5924 33.3869 48 28.7468 48 24C48 17.6348 45.4714 11.5303 40.9706 7.02944C36.4697 2.52856 30.3652 0 24 0V0ZM24 5.625C25.947 5.625 27.8502 6.20234 29.469 7.28401C31.0879 8.36569 32.3496 9.90311 33.0947 11.7019C33.8397 13.5006 34.0347 15.4799 33.6549 17.3895C33.275 19.299 32.3375 21.0531 30.9608 22.4298C29.5841 23.8065 27.83 24.744 25.9205 25.1238C24.0109 25.5037 22.0316 25.3087 20.2329 24.5637C18.4341 23.8186 16.8967 22.5569 15.815 20.938C14.7334 19.3192 14.156 17.416 14.156 15.469C14.1589 12.8591 15.197 10.3569 17.0425 8.51146C18.8879 6.66598 21.3901 5.62791 24 5.625ZM39.98 33.075C38.3757 35.8989 36.0517 38.2472 33.2446 39.8808C30.4376 41.5144 27.2478 42.3751 24 42.3751C20.7522 42.3751 17.5624 41.5144 14.7554 39.8808C11.9484 38.2472 9.62437 35.8989 8.02001 33.075L7.52001 32.201L8.18701 31.448C9.11094 30.404 10.2459 29.568 11.5169 28.9952C12.7878 28.4224 14.1659 28.1258 15.56 28.125H32.438C33.8321 28.1257 35.2102 28.4223 36.4812 28.9951C37.7522 29.5679 38.8871 30.404 39.811 31.448L40.478 32.201L39.98 33.075Z" fill="#11ADE8"/>
<path d="M15.563 30.937C13.9025 30.9378 12.2958 31.5258 11.027 32.597C12.4466 34.7386 14.3743 36.4954 16.638 37.7107C18.9017 38.9261 21.4311 39.5621 24.0005 39.5621C26.5698 39.5621 29.0992 38.9261 31.363 37.7107C33.6267 36.4954 35.5544 34.7386 36.974 32.597C35.7052 31.5258 34.0985 30.9378 32.438 30.937H15.563Z" fill="#11ADE8"/>
</svg>
